<?xml version="1.0" encoding="UTF-8" standalone="no"?>
<!DOCTYPE svg PUBLIC "-//W3C//DTD SVG 1.1//EN" "http://www.w3.org/Graphics/SVG/1.1/DTD/svg11.dtd">
<svg width="100%" height="100%" viewBox="0 0 500 500" version="1.1" xmlns="http://www.w3.org/2000/svg" xmlns:xlink="http://www.w3.org/1999/xlink" xml:space="preserve" xmlns:serif="http://www.serif.com/" style="fill-rule:evenodd;clip-rule:evenodd;stroke-linejoin:round;stroke-miterlimit:2;">
    <g id="layer1">
        <g id="path1509">
            <circle cx="250" cy="250" r="250" style="fill:rgb(30,110,230);"/>
            <path d="M250,0C387.979,0 500,112.021 500,250C500,387.979 387.979,500 250,500C112.021,500 0,387.979 0,250C0,112.021 112.021,0 250,0ZM250,25C125.819,25 25,125.819 25,250C25,374.181 125.819,475 250,475C374.181,475 475,374.181 475,250C475,125.819 374.181,25 250,25Z" style="fill:rgb(34,61,109);"/>
        </g>
        <g transform="matrix(500.001,0,0,500.001,116.6,415.107)">
            <g id="text1513">
                <g>
                    <path d="M0.474,-0L0,-0L0.017,-0.103L0.269,-0.339C0.321,-0.388 0.355,-0.427 0.372,-0.458C0.389,-0.488 0.395,-0.517 0.391,-0.546C0.384,-0.587 0.361,-0.607 0.321,-0.608C0.29,-0.609 0.264,-0.598 0.243,-0.576C0.222,-0.553 0.209,-0.524 0.205,-0.487L0.067,-0.487C0.069,-0.531 0.083,-0.571 0.106,-0.607C0.13,-0.644 0.162,-0.672 0.201,-0.692C0.241,-0.712 0.284,-0.722 0.33,-0.721C0.396,-0.72 0.447,-0.701 0.484,-0.666C0.521,-0.63 0.537,-0.582 0.533,-0.522C0.528,-0.455 0.488,-0.385 0.414,-0.313L0.344,-0.246L0.198,-0.115L0.492,-0.114L0.474,-0Z" style="fill:white;fill-rule:nonzero;"/>
                </g>
            </g>
        </g>
    </g>
</svg>
